<svg width="45" height="45" viewbox="0 0 45 45" xmlns="http://www.w3.org/2000/svg" class="service__icon"><g fill="#4c71fe"><path d="M4.475 34.995c-.285-.398-.944-.398-1.222 0L1.05 38.1c-1.425 1.972-1.395 4.29.074 5.767C1.86 44.596 2.826 45 3.86 45c1.035 0 2.002-.405 2.73-1.133 1.034-1.034 1.888-2.864.082-5.76l-2.197-3.112zm1.057 7.815c-.892.892-2.45.892-3.343 0-.946-.945-.916-2.453.08-3.833l1.59-2.25 1.567 2.213c1.522 2.445.458 3.518.105 3.87zM1.717 31.718c-.293.292-.293.765 0 1.057.15.15.337.225.532.225.194 0 .38-.075.53-.218l1.5-1.5c.293-.292.293-.765 0-1.057-.292-.293-.764-.293-1.057 0l-1.506 1.492zM.75 29.25h2.248c.413 0 .75-.337.75-.75s-.337-.75-.75-.75H.75c-.413 0-.75.337-.75.75s.337.75.75.75zM44.228 21.75H32.234V18h-4.498v2.25h-3.358c-.218 0-.39-.172-.39-.39V16.5h2.25V12h-3.75V0H6v12h-3.75v4.5H4.5v9.323c0 7.68 6.244 13.927 13.92 13.927h9.318V42h4.498v-3.75h11.994v-16.5zM7.496 1.5H20.99V12H7.495V1.5zM3.748 15v-1.5h20.99V15H3.747zm14.67 23.25c-5.93 0-10.892-4.185-12.12-9.75h2.697c.413 0 .75-.337.75-.75V25.5h2.25c.41 0 .75-.337.75-.75v-3c0-.413-.34-.75-.75-.75-.413 0-.75.337-.75.75V24h-2.25c-.412 0-.75.337-.75.75V27H6.058c-.038-.39-.06-.78-.06-1.177V16.5H22.49v3.36c0 1.043.846 1.89 1.888 1.89h3.358v16.5h-9.318zm12.316 2.25h-1.5v-21h1.5v21zm11.994-3.75H32.234v-13.5h10.494v13.5z"></path></g></svg>