<svg width="32" height="46" viewbox="0 0 32 46" xmlns="http://www.w3.org/2000/svg" class="service__icon"><g fill="#4c71fe"><path d="M16.103.75c-.577 0-1.17.03-1.754.098C7.286 1.627 1.597 7.335.832 14.4c-.525 4.807 1.162 9.472 4.633 12.795 2.234 2.145 3.523 5.1 3.523 8.1v7.455h1.873l2.25 3h5.246l2.248-3h1.867V36c0-3.165 1.394-6.218 3.83-8.378 3.284-2.917 5.165-7.11 5.165-11.497C31.47 7.65 24.574.75 16.103.75zm1.5 43.5h-3.75l-1.123-1.5h5.997l-1.125 1.5zm3.372-3H10.48v-1.5h10.495v1.5zm0-3H10.48v-1.5H20.976v1.5zm.023-3h-10.51c-.015-3.39-1.462-6.72-3.98-9.135-3.126-3-4.655-7.215-4.176-11.55C3.03 8.19 8.157 3.045 14.53 2.34c.516-.06 1.048-.09 1.573-.09 7.646 0 13.868 6.225 13.868 13.875 0 3.96-1.7 7.74-4.662 10.372-2.563 2.273-4.108 5.43-4.31 8.753z"></path><path d="M25.124 16.613c-.352-.218-.817-.113-1.034.24-.458.742-1.035 1.147-1.612 1.147-.577 0-1.154-.405-1.612-1.148l-.015-.015c-.03-.044-.066-.075-.104-.112-.037-.037-.067-.075-.105-.098l-.014-.014c-.03-.023-.067-.023-.105-.038-.05-.022-.096-.045-.148-.052-.045-.008-.09-.008-.143-.008-.053 0-.098-.007-.143.008-.053.007-.098.037-.15.052-.038.015-.068.015-.105.038l-.015.015c-.045.03-.075.067-.113.105-.037.037-.075.067-.097.105l-.015.015C19.135 17.595 18.557 18 17.98 18c-.577 0-1.154-.405-1.61-1.147-.01-.008-.01-.008-.016-.015-.03-.045-.068-.075-.105-.113-.04-.037-.07-.075-.106-.097l-.015-.015c-.03-.023-.07-.023-.106-.038-.053-.022-.098-.045-.15-.052-.045-.008-.09-.008-.143-.008-.05 0-.096-.007-.14.008-.053.007-.098.037-.15.052-.038.015-.068.015-.106.038l-.015.015c-.046.03-.076.067-.113.105-.038.037-.075.067-.098.105l-.016.015c-.457.742-1.034 1.147-1.61 1.147-.58 0-1.156-.405-1.613-1.147l-.014-.015c-.03-.045-.068-.075-.105-.113-.037-.037-.067-.075-.104-.097l-.015-.015c-.03-.023-.066-.023-.104-.038-.052-.022-.097-.045-.15-.052-.045-.008-.09-.008-.142-.008-.053 0-.098-.007-.143.008-.05.007-.096.037-.15.052-.036.015-.066.015-.104.038l-.015.015c-.044.03-.074.067-.11.105-.04.037-.076.067-.098.105l-.015.015C10.14 17.595 9.562 18 8.985 18c-.577 0-1.155-.405-1.612-1.147-.217-.353-.682-.458-1.034-.24-.354.217-.46.682-.24 1.035.74 1.192 1.768 1.852 2.885 1.852.824 0 1.604-.36 2.25-1.035.643.668 1.423 1.035 2.248 1.035.824 0 1.604-.36 2.248-1.035.646.668 1.426 1.035 2.25 1.035.825 0 1.604-.36 2.25-1.035.644.668 1.423 1.035 2.248 1.035 1.117 0 2.144-.66 2.886-1.852.217-.353.112-.818-.24-1.035z"></path></g></svg>