<svg width="45" height="28" viewbox="0 0 45 28" xmlns="http://www.w3.org/2000/svg" class="service__icon"><g fill="#4c71fe"><path d="M44.228 23.25h-.585l.345-1.733c.667-3.345.277-6.75-1.125-9.854-.135-.293-.434-.473-.764-.436-.758.083-1.493-.112-2.25-.69-.997-.757-1.552-1.837-1.484-2.88.097-1.537 1.22-2.812 2.728-3.097.398-.075.66-.45.6-.847l-.345-2.326c-.03-.195-.136-.375-.3-.495-.158-.12-.36-.172-.563-.135L29.985 2.4v-.9c0-.413-.338-.75-.75-.75h-3.748c-.412 0-.75.337-.75.75v2.123c-1.536.524-3.05 1.207-4.497 2.054v-.322c0-.885-.72-1.605-1.604-1.605h-2.04c-.884 0-1.604.72-1.604 1.605V9.75c0 .037.015.075.023.113-2.107 2.31-3.718 5.13-4.445 8.467-2.662.84-4.798 1.59-6.86 4.343l-.404.63c-1.162.3-2.084 1.634-2.594 2.4l-.585.877c-.15.233-.164.525-.037.773.127.247.382.397.66.397h43.478c.412 0 .75-.337.75-.75v-3c0-.413-.338-.75-.75-.75zm-17.99-21h2.248v.39c-.21.038-.42.083-.63.127-.158.03-.307.06-.465.098-.224.052-.456.112-.69.172-.148.038-.306.075-.463.12V2.25zM16.49 5.355c0-.06.045-.105.105-.105h2.04c.06 0 .104.045.104.105v1.252c-.787.54-1.544 1.133-2.248 1.77V5.355zm-5.165 14.31l.142-.045c.284-.09.486-.33.516-.623.008-.06.008-.12.008-.172 1.507-7.275 7.526-11.97 13.74-13.95.533-.173 1.065-.315 1.59-.45.075-.015.15-.037.232-.06.555-.128 1.102-.24 1.642-.33l.15-.022 10.63-1.665.134.922c-1.82.638-3.126 2.31-3.246 4.29-.097 1.553.675 3.112 2.07 4.17.884.675 1.783 1.005 2.758 1.012 1.11 2.693 1.394 5.61.824 8.476l-.404 2.032H5.157c1.747-2.198 3.53-2.753 6.17-3.585zm32.15 6.585H2.152c.39-.563 1.08-1.47 1.62-1.5H43.48v1.5z"></path><path d="M36.844 11.797c-1.042-1.26-1.567-2.797-1.47-4.32.016-.292.053-.577.113-.855l.21-1.057c.045-.24-.023-.488-.195-.668-.172-.18-.412-.262-.66-.224l-5.412.847c-4.835.758-10.127 4.485-12.106 8.513l-1.17 1.184c-.225.226-.277.57-.142.856.127.262.39.42.675.42.03 0 .052 0 .082-.008l20.59-2.25c.278-.03.51-.21.616-.465.105-.255.06-.547-.12-.758l-1.012-1.215zM24.864 14.1V12h6.748v1.365l-5.188.57-1.56.165zm8.247-.9v-1.95c0-.412-.337-.75-.75-.75h-8.245c-.412 0-.75.338-.75.75v3.015l-4.737.518c1.724-3.608 6.672-7.095 11.034-7.778l4.348-.683c-.067.346-.112.698-.135 1.058-.12 1.905.525 3.81 1.814 5.37l.127.158-2.706.292z"></path></g></svg>