<svg width="34" height="43" viewbox="0 0 34 43" xmlns="http://www.w3.org/2000/svg" class="service__icon"><g fill="#4c71fe"><path d="M14.398 34.5h4.497c.413 0 .75-.337.75-.75s-.337-.75-.75-.75h-4.497c-.413 0-.75.337-.75.75s.337.75.75.75z"></path><path d="M17.404 34.488c.195 0 .39-.083.532-.218.135-.142.217-.337.217-.532 0-.203-.082-.398-.217-.533-.277-.277-.787-.27-1.057 0-.144.135-.226.33-.226.533 0 .195.082.39.217.532.144.135.34.218.534.218zM18.146 35.25h-1.5c-.412 0-.75.337-.75.75s.338.75.75.75h1.5c.412 0 .75-.337.75-.75s-.338-.75-.75-.75zM14.398 36.75c.194 0 .39-.083.532-.218.135-.142.217-.337.217-.532s-.082-.39-.217-.532c-.285-.278-.787-.278-1.065 0-.135.142-.217.337-.217.532 0 .203.082.39.217.532.143.136.338.218.533.218z"></path> <path d="M33.557 13.92c-.18-.375-.63-.525-1.005-.345l-2.27 1.11c-.256-.443-.668-.795-1.148-.998V11.25c0-.412-.337-.75-.75-.75-.412 0-.75.338-.75.75v2.318c-.524.142-.974.48-1.29.975-.8 1.275-2.337 1.732-3.957 2.047v-2.34c0-.412-.337-.75-.75-.75-.412 0-.75.338-.75.75v2.61c-.42.075-.838.15-1.236.248-.906.217-1.76.57-2.547 1.05-.113-.203-.233-.398-.353-.585-.24-.368-.682-1.38-.72-1.56-.007-1.636 1.695-2.753 3.35-3.833.75-.495 1.463-.96 2.04-1.477.54-.495.975-1.073 1.312-1.703h3.404c.412 0 .75-.338.75-.75s-.338-.75-.75-.75h-2.804c.082-.322.135-.66.157-.99l2.953-1.327c.375-.173.547-.615.375-.99-.173-.375-.615-.548-.99-.375l-2.414 1.08c-.052-.285-.127-.563-.225-.84-.128-.345-.315-.645-.563-.885l1.162-2.055c.202-.36.074-.818-.286-1.02-.36-.203-.817-.076-1.02.284l-1.23 2.176c-.08-.008-.156-.015-.238-.015-.72 0-1.387.314-1.807.825L16.832 1.65c-.338-.24-.802-.165-1.05.165-.24.337-.165.803.165 1.05l2.826 2.04c.023.15.06.308.113.465.344.975-.12 1.755-1.042 2.535l-1.68-1.68c-.292-.292-.764-.292-1.056 0-.294.293-.294.765 0 1.058l1.513 1.514c-.21.143-.435.285-.66.428-.442.277-.854.548-1.214.81-1.14.855-2.01 1.883-2.55 3.022-1.372-1.162-2.64-2.31-3.403-3.652l3.62-3.622c.293-.293.293-.766 0-1.058-.292-.292-.764-.292-1.057 0L8.205 7.883c-.143-.638-.173-1.32-.038-2.07C8.482 3.99 6.787.638 6.495.285L6.248 0h-.66l-.224.217c-.435.435-.893 1.838-1.2 2.986L1.93.966C1.638.675 1.166.675.873.967c-.292.293-.292.765 0 1.058l2.91 2.91c-.518 3.27.576 5.708 2.24 7.815H2.897c-.412 0-.75.338-.75.75s.338.75.75.75h4.43c.63.66 1.29 1.305 1.942 1.935.884.855 1.746 1.688 2.503 2.565h-2.88c-.41 0-.748.337-.748.75s.337.75.75.75h4.032c.675 1.027 1.155 2.137 1.297 3.39l-2.82-1.088c-.388-.15-.816.046-.966.428-.15.383.045.817.428.968l3.366 1.297c-.03.27-.068.547-.135.84-.015.052-.008.113-.015.165H5.896v6h1.956l2.714 10.5h13.156l2.713-10.5h1.95v-6h-9.76c.014-.098.037-.203.052-.3l3.358-2.055c.352-.218.465-.675.247-1.035-.217-.352-.674-.465-1.034-.247l-2.474 1.515c-.007-.54-.03-1.066-.112-1.59 1.072-1.035 2.833-1.343 4.542-1.636.3-.052.585-.105.87-.157l2.28 2.28c.15.15.336.225.53.225.196 0 .383-.075.533-.218.293-.292.293-.765 0-1.057l-1.64-1.643c.943-.315 1.798-.78 2.547-1.372l2.624 1.905c.128.09.277.135.435.135.232 0 .457-.105.607-.308.247-.337.172-.802-.165-1.05l-2.4-1.747c.286-.322.55-.668.78-1.035.12-.195.203-.39.263-.6l2.744-1.343c.367-.172.525-.622.345-.997zM22.56 41.25H11.72l-2.324-9h15.48l-2.316 9zm4.325-10.5H7.395v-3H26.885v3zM22.95 19.425c-2.002.345-4.266.735-5.66 2.385l-.225.27.06.345c.217 1.207.21 2.467-.015 3.817h-1.514c.097-.51.15-.997.165-1.477 0-.023.008-.045 0-.067.143-4.178-2.698-6.93-5.456-9.6-.735-.713-1.47-1.418-2.13-2.138-2.03-2.205-3.493-4.583-2.9-7.958.12-.69.397-1.717.66-2.527.427 1.012.87 2.363.75 3.068-.256 1.477-.04 2.752.464 3.885.022.082.052.157.097.232.975 2.01 2.834 3.578 4.558 5.018l1.11.937.322-1.11c.352-1.238 1.184-2.37 2.406-3.278.316-.232.705-.48 1.125-.75 1.8-1.147 4.513-2.872 3.53-5.632-.11-.315-.007-.465.03-.518.128-.18.406-.307.69-.307.218 0 .593.068.758.533.6 1.68.037 3.75-1.365 5.025-.487.442-1.147.877-1.85 1.335-1.898 1.245-4.042 2.647-4.027 5.1 0 .562.75 2.047.96 2.362.233.36.45.75.676 1.2l.404.81.72-.54c.81-.607 1.724-1.035 2.72-1.282.51-.12 1.058-.218 1.643-.323 2.174-.375 4.64-.802 5.967-2.902.15-.24.345-.353.592-.353.315 0 .637.188.78.443.105.194.09.397-.053.622-.938 1.485-2.34 2.512-4.056 2.977-.585.165-1.237.278-1.934.398z"></path></g></svg>