<svg width="36" height="46" viewbox="0 0 36 46" xmlns="http://www.w3.org/2000/svg" class="service__icon"><g fill="#4c71fe"><path d="M18.31 15.5c-.41 0-.75.338-.75.75v1.5c0 .413.34.75.75.75.413 0 .75-.337.75-.75v-1.5c0-.412-.337-.75-.75-.75zM21.31 15.5c-.413 0-.75.338-.75.75v1.5c0 .413.337.75.75.75.412 0 .75-.337.75-.75v-1.5c0-.412-.338-.75-.75-.75zM24.308 15.5c-.412 0-.75.338-.75.75v1.5c0 .413.338.75.75.75s.75-.337.75-.75v-1.5c0-.412-.338-.75-.75-.75zM27.307 15.5c-.413 0-.75.338-.75.75v1.5c0 .413.337.75.75.75.412 0 .75-.337.75-.75v-1.5c0-.412-.338-.75-.75-.75z"></path><path d="M31.554 8.75V8c2.07 0 3.748-1.68 3.748-3.75 0-2.07-1.68-3.75-3.748-3.75-.412 0-.75.338-.75.75 0 .413.338.75.75.75 1.237 0 2.25 1.013 2.25 2.25S32.79 6.5 31.553 6.5c0-.412-.337-.75-.75-.75h-1.087c-2.39 0-4.865-.338-7.353-1.013-1.207-.322-2.46-.487-3.71-.487H15.06v-1.5c0-.413-.337-.75-.75-.75h-2.248c-.413 0-.75.337-.75.75v1.5h-.75v-1.5c0-.413-.337-.75-.75-.75H7.567c-.412 0-.75.337-.75.75v1.538C3.038 4.647.07 7.841.07 11.712v6.944c0 1.568 1.274 2.843 2.84 2.843H4.57v2.25c0 .413.337.75.75.75h2.248v6.398c-1.117.93-4.962 4.402-5.232 8.272-.12 1.755.494 3.337 1.86 4.733 1.1 1.027 2.57 1.597 4.13 1.597 1.558 0 3.028-.57 4.16-1.627 1.326-1.358 1.934-2.933 1.814-4.673-.263-3.885-4.138-7.395-5.233-8.318V24.5h2.25c.41 0 .75-.337.75-.75V21.5H30.21c1.567 0 2.84-1.26 2.84-2.82.01-3.345-1.16-6.6-3.282-9.18h1.034c.413 0 .75-.338.75-.75zM9.2 43.25c-.262.472-.585.75-.877.75-.292 0-.615-.27-.847-.697-.63-1.38-.682-2.49-.652-3.308.075-2.122.75-4.665 1.484-6.712.75 2.077 1.432 4.657 1.5 6.78.03.862-.023 1.904-.608 3.187zm-5.367-3.975c.135-1.92 1.41-3.81 2.64-5.205-.594 1.898-1.08 4.027-1.14 5.88-.03.847.014 1.957.53 3.345-.216-.142-.426-.293-.613-.473-1.05-1.057-1.515-2.22-1.417-3.547zm8.973.03c.09 1.313-.367 2.468-1.372 3.495-.195.18-.412.345-.637.488.487-1.313.54-2.378.51-3.27-.06-1.868-.555-4.035-1.162-5.97 1.23 1.41 2.526 3.322 2.66 5.257zM12.813 3.5h.75v.75h-.75V3.5zm-4.497 0h.75v.75h-.75V3.5zM10.564 23H6.067v-1.5h4.497V23zm19.49-15h-.284c-.592 0-1.117.33-1.372.87-.247.533-.172 1.14.195 1.59 1.91 2.31 2.96 5.227 2.953 8.22 0 .727-.607 1.32-1.34 1.32H2.91c-.74 0-1.34-.6-1.34-1.343v-6.944c0-3.285 2.675-5.963 5.96-5.963h11.124c1.123 0 2.24.15 3.32.435C24.59 6.89 27.2 7.25 29.717 7.25h.338V8z"></path><path d="M27.87 10.475l-1.253-.832C24.277 8.075 21.55 7.25 18.73 7.25H7.817c-1.656 0-2.998 1.342-2.998 3s1.342 3 2.998 3h19.22c.675 0 1.253-.435 1.447-1.072.195-.646-.052-1.328-.614-1.703zM7.815 11.75c-.824 0-1.5-.675-1.5-1.5s.676-1.5 1.5-1.5H18.73c2.52 0 4.963.742 7.062 2.137l1.245.863H7.817z"></path></g></svg>